# xmcd
#
# Track frame offsets: 
#        150
#        12567
#        27765
#        42322
#        56915
#        70867
#        84770
#        97485
#        110642
#        119237
#        131522
#        143650
#        155922
#        167767
#        181125
#        194632
#        203027
#        214205
#
# Disc length: 3050 seconds
#
# Revision: 0
# Processed by: cddbd v1.5.2PL0 Copyright (c) Steve Scherf et al.
# Submitted via: ExactAudioCopy v1.1
#
DISCID=150be812
DTITLE=Mahalia Jackson - Mahalia
DYEAR=1963
DGENRE=Gospel
TTITLE0=Move On Up A Little Higher-Part1
TTITLE1=Move On Up A Little Higher-Part2
TTITLE2=Hands Of God
TTITLE3=It Pays To Serve Jesus
TTITLE4=Jesus Is With Me
TTITLE5=How I Got Over
TTITLE6=I'm Glad Slavation Is Free
TTITLE7=Said He Would
TTITLE8=Didn't It Rain
TTITLE9=Walk With Me
TTITLE10=Just Over The Hill-Part1
TTITLE11=Just Over The Hill-Part2
TTITLE12=Get Away Jordon
TTITLE13=Even Me
TTITLE14=I'm Getting Nearer To My Home
TTITLE15=No Matter How You Pray
TTITLE16=The Last Mile Of The Way
TTITLE17=I Can Put My Trust In Jesus
EXTD=
EXTT0=
EXTT1=
EXTT2=
EXTT3=
EXTT4=
EXTT5=
EXTT6=
EXTT7=
EXTT8=
EXTT9=
EXTT10=
EXTT11=
EXTT12=
EXTT13=
EXTT14=
EXTT15=
EXTT16=
EXTT17=
PLAYORDER=
